HIERARCHY
ROOT Hips
{
	OFFSET	0.00	0.00	0.00
	CHANNELS 6 Xposition Yposition Zposition Zrotation Xrotation Yrotation
	JOINT Spine
	{
		OFFSET	 0.000000	 0.052128	 0.009727
		CHANNELS 3 Zrotation Xrotation Yrotation
		JOINT Chest
		{
			OFFSET	 0.000000	 0.110886	 0.014510
			CHANNELS 3 Zrotation Xrotation Yrotation
			JOINT UpperChest
			{
				OFFSET	-0.000000	 0.124285	-0.013313
				CHANNELS 3 Zrotation Xrotation Yrotation
				JOINT Neck
				{
					OFFSET	-0.000000	 0.114615	-0.033396
					CHANNELS 3 Zrotation Xrotation Yrotation
					JOINT Head
					{
						OFFSET	 0.000000	 0.073770	 0.009335
						CHANNELS 3 Zrotation Xrotation Yrotation
						JOINT LeftEye
						{
							OFFSET	 0.020036	 0.059252	 0.028383
							CHANNELS 3 Zrotation Xrotation Yrotation
							End Site
							{
								OFFSET	 0.020036	 0.059252	 0.028383
							}
						}
						JOINT RightEye
						{
							OFFSET	-0.020036	 0.059252	 0.028383
							CHANNELS 3 Zrotation Xrotation Yrotation
							End Site
							{
								OFFSET	-0.020036	 0.059252	 0.028383
							}
						}
					}
				}
				JOINT LeftShoulder
				{
					OFFSET	 0.022386	 0.087264	-0.027443
					CHANNELS 3 Zrotation Xrotation Yrotation
					JOINT LeftUpperArm
					{
						OFFSET	 0.086295	-0.014869	 0.005364
						CHANNELS 3 Zrotation Xrotation Yrotation
						JOINT LeftLowerArm
						{
							OFFSET	 0.210165	-0.009786	 0.001763
							CHANNELS 3 Zrotation Xrotation Yrotation
							JOINT LeftHand
							{
								OFFSET	 0.204753	-0.000446	 0.016902
								CHANNELS 3 Zrotation Xrotation Yrotation
								JOINT LeftIndexProximal
								{
									OFFSET	 0.063906	 0.005562	 0.021442
									CHANNELS 3 Zrotation Xrotation Yrotation
									JOINT LeftIndexIntermediate
									{
										OFFSET	 0.032821	-0.000134	 0.005149
										CHANNELS 3 Zrotation Xrotation Yrotation
										JOINT LeftIndexDistal
										{
											OFFSET	 0.020314	-0.000673	 0.002301
											CHANNELS 3 Zrotation Xrotation Yrotation
											End Site
											{
												OFFSET	 0.020314	-0.000673	 0.002301
											}
										}
									}
								}
								JOINT LeftLittleProximal
								{
									OFFSET	 0.063261	 0.003125	-0.026794
									CHANNELS 3 Zrotation Xrotation Yrotation
									JOINT LeftLittleIntermediate
									{
										OFFSET	 0.031398	-0.000273	 0.000022
										CHANNELS 3 Zrotation Xrotation Yrotation
										JOINT LeftLittleDistal
										{
											OFFSET	 0.018059	 0.000679	-0.000943
											CHANNELS 3 Zrotation Xrotation Yrotation
											End Site
											{
												OFFSET	 0.018059	 0.000679	-0.000943
											}
										}
									}
								}
								JOINT LeftMiddleProximal
								{
									OFFSET	 0.066112	 0.008373	 0.004780
									CHANNELS 3 Zrotation Xrotation Yrotation
									JOINT LeftMiddleIntermediate
									{
										OFFSET	 0.036901	-0.001349	 0.002438
										CHANNELS 3 Zrotation Xrotation Yrotation
										JOINT LeftMiddleDistal
										{
											OFFSET	 0.022683	-0.002406	 0.000937
											CHANNELS 3 Zrotation Xrotation Yrotation
											End Site
											{
												OFFSET	 0.022683	-0.002406	 0.000937
											}
										}
									}
								}
								JOINT LeftRingProximal
								{
									OFFSET	 0.066681	 0.008306	-0.010961
									CHANNELS 3 Zrotation Xrotation Yrotation
									JOINT LeftRingIntermediate
									{
										OFFSET	 0.034323	-0.000538	 0.000172
										CHANNELS 3 Zrotation Xrotation Yrotation
										JOINT LeftRingDistal
										{
											OFFSET	 0.019796	 0.000700	 0.000249
											CHANNELS 3 Zrotation Xrotation Yrotation
											End Site
											{
												OFFSET	 0.019796	 0.000700	 0.000249
											}
										}
									}
								}
								JOINT LeftThumbProximal
								{
									OFFSET	 0.002032	-0.006912	 0.017734
									CHANNELS 3 Zrotation Xrotation Yrotation
									JOINT LeftThumbIntermediate
									{
										OFFSET	 0.032287	-0.002701	 0.033401
										CHANNELS 3 Zrotation Xrotation Yrotation
										JOINT LeftThumbDistal
										{
											OFFSET	 0.021324	-0.001512	 0.019035
											CHANNELS 3 Zrotation Xrotation Yrotation
											End Site
											{
												OFFSET	 0.021324	-0.001512	 0.019035
											}
										}
									}
								}
							}
						}
					}
				}
				JOINT RightShoulder
				{
					OFFSET	-0.022386	 0.087267	-0.027443
					CHANNELS 3 Zrotation Xrotation Yrotation
					JOINT RightUpperArm
					{
						OFFSET	-0.086294	-0.014870	 0.005364
						CHANNELS 3 Zrotation Xrotation Yrotation
						JOINT RightLowerArm
						{
							OFFSET	-0.210167	-0.009788	 0.001763
							CHANNELS 3 Zrotation Xrotation Yrotation
							JOINT RightHand
							{
								OFFSET	-0.204752	-0.000445	 0.016902
								CHANNELS 3 Zrotation Xrotation Yrotation
								JOINT RightIndexProximal
								{
									OFFSET	-0.063906	 0.005562	 0.021442
									CHANNELS 3 Zrotation Xrotation Yrotation
									JOINT RightIndexIntermediate
									{
										OFFSET	-0.032821	-0.000134	 0.005149
										CHANNELS 3 Zrotation Xrotation Yrotation
										JOINT RightIndexDistal
										{
											OFFSET	-0.020313	-0.000674	 0.002302
											CHANNELS 3 Zrotation Xrotation Yrotation
											End Site
											{
												OFFSET	-0.020313	-0.000674	 0.002302
											}
										}
									}
								}
								JOINT RightLittleProximal
								{
									OFFSET	-0.063261	 0.003125	-0.026793
									CHANNELS 3 Zrotation Xrotation Yrotation
									JOINT RightLittleIntermediate
									{
										OFFSET	-0.031398	-0.000273	 0.000023
										CHANNELS 3 Zrotation Xrotation Yrotation
										JOINT RightLittleDistal
										{
											OFFSET	-0.018059	 0.000679	-0.000943
											CHANNELS 3 Zrotation Xrotation Yrotation
											End Site
											{
												OFFSET	-0.018059	 0.000679	-0.000943
											}
										}
									}
								}
								JOINT RightMiddleProximal
								{
									OFFSET	-0.066112	 0.008373	 0.004780
									CHANNELS 3 Zrotation Xrotation Yrotation
									JOINT RightMiddleIntermediate
									{
										OFFSET	-0.036901	-0.001349	 0.002438
										CHANNELS 3 Zrotation Xrotation Yrotation
										JOINT RightMiddleDistal
										{
											OFFSET	-0.022683	-0.002405	 0.000937
											CHANNELS 3 Zrotation Xrotation Yrotation
											End Site
											{
												OFFSET	-0.022683	-0.002405	 0.000937
											}
										}
									}
								}
								JOINT RightRingProximal
								{
									OFFSET	-0.066681	 0.008306	-0.010961
									CHANNELS 3 Zrotation Xrotation Yrotation
									JOINT RightRingIntermediate
									{
										OFFSET	-0.034323	-0.000538	 0.000173
										CHANNELS 3 Zrotation Xrotation Yrotation
										JOINT RightRingDistal
										{
											OFFSET	-0.019796	 0.000700	 0.000249
											CHANNELS 3 Zrotation Xrotation Yrotation
											End Site
											{
												OFFSET	-0.019796	 0.000700	 0.000249
											}
										}
									}
								}
								JOINT RightThumbProximal
								{
									OFFSET	-0.002032	-0.006912	 0.017734
									CHANNELS 3 Zrotation Xrotation Yrotation
									JOINT RightThumbIntermediate
									{
										OFFSET	-0.032277	-0.002678	 0.033413
										CHANNELS 3 Zrotation Xrotation Yrotation
										JOINT RightThumbDistal
										{
											OFFSET	-0.021320	-0.001499	 0.019041
											CHANNELS 3 Zrotation Xrotation Yrotation
											End Site
											{
												OFFSET	-0.021320	-0.001499	 0.019041
											}
										}
									}
								}
							}
						}
					}
				}
			}
		}
	}
	JOINT LeftUpperLeg
	{
		OFFSET	 0.077122	-0.039702	-0.004909
		CHANNELS 3 Zrotation Xrotation Yrotation
		JOINT LeftLowerLeg
		{
			OFFSET	-0.019635	-0.342479	-0.006635
			CHANNELS 3 Zrotation Xrotation Yrotation
			JOINT LeftFoot
			{
				OFFSET	-0.010011	-0.401579	-0.020943
				CHANNELS 3 Zrotation Xrotation Yrotation
				JOINT LeftToes
				{
					OFFSET	 0.001443	-0.064447	 0.110538
					CHANNELS 3 Zrotation Xrotation Yrotation
					End Site
					{
						OFFSET	 0.001443	-0.064447	 0.110538
					}
				}
			}
		}
	}
	JOINT RightUpperLeg
	{
		OFFSET	-0.077122	-0.039702	-0.004909
		CHANNELS 3 Zrotation Xrotation Yrotation
		JOINT RightLowerLeg
		{
			OFFSET	 0.019635	-0.342479	-0.006634
			CHANNELS 3 Zrotation Xrotation Yrotation
			JOINT RightFoot
			{
				OFFSET	 0.010012	-0.401580	-0.020943
				CHANNELS 3 Zrotation Xrotation Yrotation
				JOINT RightToes
				{
					OFFSET	-0.001442	-0.064447	 0.110538
					CHANNELS 3 Zrotation Xrotation Yrotation
					End Site
					{
						OFFSET	-0.001442	-0.064447	 0.110538
					}
				}
			}
		}
	}
}
MOTION
Frames:    4
Frame Time: 0.03333334
-0.002598	 0.892067	-0.010602	 2.147043	 4.733443	-2.717184	 0.901592	-6.230152	-1.687927	 0.305133	 12.534420	 0.673743	 0.000000	 0.000000	 0.000000	 0.478016	-11.323650	-0.595152	 12.829910	 1.327866	-2.402413	 0.000000	 0.000000	 0.000000	 0.000000	 0.000000	 0.000000	-6.894142	-14.974220	 8.882382	-36.204290	 13.790210	 0.423371	-23.721240	 48.899110	-78.230290	-56.946240	-10.893290	 88.258950	 0.000000	 0.000000	 0.000000	 0.000000	 0.000000	 0.000000	 0.000000	 0.000000	 0.000000	 0.000000	 0.000000	 0.000000	 0.000000	 0.000000	 0.000000	 0.000000	 0.000000	 0.000000	 0.000000	 0.000000	 0.000000	 0.000000	 0.000000	 0.000000	 0.000000	 0.000000	 0.000000	 0.000000	 0.000000	 0.000000	 0.000000	 0.000000	 0.000000	 0.000000	 0.000000	 0.000000	 0.000000	 0.000000	 0.000000	 0.000000	 0.000000	 0.000000	 0.000000	 0.000000	 0.000000	-27.463580	-13.696100	-16.133720	 64.851940	 19.015730	 10.967900	 18.252900	 42.970640	 44.389080	-1.697134	 3.026027	 18.640920	 0.000000	 0.000000	 0.000000	 0.000000	 0.000000	 0.000000	 0.000000	 0.000000	 0.000000	 0.000000	 0.000000	 0.000000	 0.000000	 0.000000	 0.000000	 0.000000	 0.000000	 0.000000	 0.000000	 0.000000	 0.000000	 0.000000	 0.000000	 0.000000	 0.000000	 0.000000	 0.000000	 0.000000	 0.000000	 0.000000	 0.000000	 0.000000	 0.000000	 0.000000	 0.000000	 0.000000	 0.000000	 0.000000	 0.000000	 0.000000	 0.000000	 0.000000	 0.000000	 0.000000	 0.000000	 5.787906	-17.104630	 1.257689	 16.561920	 20.314230	-43.997750	 12.220090	-21.144310	 26.474740	 0.000000	 0.000000	 0.000000	-20.372740	-27.810140	-9.123000	 5.977518	 42.537400	-5.499047	-17.407710	-35.020770	-25.824280	 0.000000	 0.000000	 0.000000
-0.015097	 0.896011	-0.046682	-1.511298	 3.968476	 0.376025	 3.701156	-6.180196	-3.920492	 4.421287	 13.047410	 0.512259	 0.000000	 0.000000	 0.000000	-0.847232	-11.464530	-0.881304	 10.009060	 0.377565	-5.134868	 0.000000	 0.000000	 0.000000	 0.000000	 0.000000	 0.000000	-6.237996	-15.153060	 8.884187	-38.888400	 14.656890	-1.712181	-22.880680	 46.310750	-75.749110	-27.880350	-8.813111	 79.440780	 0.000000	 0.000000	 0.000000	 0.000000	 0.000000	 0.000000	 0.000000	 0.000000	 0.000000	 0.000000	 0.000000	 0.000000	 0.000000	 0.000000	 0.000000	 0.000000	 0.000000	 0.000000	 0.000000	 0.000000	 0.000000	 0.000000	 0.000000	 0.000000	 0.000000	 0.000000	 0.000000	 0.000000	 0.000000	 0.000000	 0.000000	 0.000000	 0.000000	 0.000000	 0.000000	 0.000000	 0.000000	 0.000000	 0.000000	 0.000000	 0.000000	 0.000000	 0.000000	 0.000000	 0.000000	-27.899860	-13.780100	-16.286670	 56.621460	 17.633920	 14.124390	 24.366930	 47.034230	 43.633790	-3.872929	-2.192890	 21.041240	 0.000000	 0.000000	 0.000000	 0.000000	 0.000000	 0.000000	 0.000000	 0.000000	 0.000000	 0.000000	 0.000000	 0.000000	 0.000000	 0.000000	 0.000000	 0.000000	 0.000000	 0.000000	 0.000000	 0.000000	 0.000000	 0.000000	 0.000000	 0.000000	 0.000000	 0.000000	 0.000000	 0.000000	 0.000000	 0.000000	 0.000000	 0.000000	 0.000000	 0.000000	 0.000000	 0.000000	 0.000000	 0.000000	 0.000000	 0.000000	 0.000000	 0.000000	 0.000000	 0.000000	 0.000000	 12.297880	-16.322930	 2.929600	 10.779710	 22.636550	-30.366200	 6.491478	-18.849620	 15.775340	 0.000000	 0.000000	 0.000000	-15.330060	-22.926030	-5.471191	 5.454949	 34.703140	-5.809170	-13.555490	-29.385320	-23.032030	 0.000000	 0.000000	 0.000000
-0.022317	 0.899039	-0.063364	-3.424890	 3.391385	 0.796444	 4.944827	-5.798293	-3.589311	 5.948099	 13.557630	 0.278785	 0.000000	 0.000000	 0.000000	-1.378242	-11.971210	-0.870341	 8.699940	 0.293044	-5.467831	 0.000000	 0.000000	 0.000000	 0.000000	 0.000000	 0.000000	-4.031331	-15.370070	 8.997929	-41.602250	 15.278260	-3.254273	-22.619520	 45.415700	-73.209010	-21.929770	-7.033246	 69.793350	 0.000000	 0.000000	 0.000000	 0.000000	 0.000000	 0.000000	 0.000000	 0.000000	 0.000000	 0.000000	 0.000000	 0.000000	 0.000000	 0.000000	 0.000000	 0.000000	 0.000000	 0.000000	 0.000000	 0.000000	 0.000000	 0.000000	 0.000000	 0.000000	 0.000000	 0.000000	 0.000000	 0.000000	 0.000000	 0.000000	 0.000000	 0.000000	 0.000000	 0.000000	 0.000000	 0.000000	 0.000000	 0.000000	 0.000000	 0.000000	 0.000000	 0.000000	 0.000000	 0.000000	 0.000000	-26.147400	-14.102560	-15.706420	 55.078420	 17.701280	 13.130740	 23.144630	 46.098550	 45.162180	-4.402649	-0.922462	 21.754000	 0.000000	 0.000000	 0.000000	 0.000000	 0.000000	 0.000000	 0.000000	 0.000000	 0.000000	 0.000000	 0.000000	 0.000000	 0.000000	 0.000000	 0.000000	 0.000000	 0.000000	 0.000000	 0.000000	 0.000000	 0.000000	 0.000000	 0.000000	 0.000000	 0.000000	 0.000000	 0.000000	 0.000000	 0.000000	 0.000000	 0.000000	 0.000000	 0.000000	 0.000000	 0.000000	 0.000000	 0.000000	 0.000000	 0.000000	 0.000000	 0.000000	 0.000000	 0.000000	 0.000000	 0.000000	 15.852200	-15.910160	 3.802904	 8.081591	 24.317370	-23.471980	 3.765576	-17.198880	 9.651793	 0.000000	 0.000000	 0.000000	-11.376040	-20.740300	-3.522970	 2.941596	 31.167800	-1.496658	-12.428120	-24.874610	-23.941050	 0.000000	 0.000000	 0.000000
-0.030166	 0.902274	-0.077897	-5.175076	 2.758698	 0.887455	 5.742487	-5.374152	-3.179785	 6.806753	 14.002550	 0.032214	 0.000000	 0.000000	 0.000000	-1.489623	-12.524550	-0.749815	 7.690086	 0.475754	-5.242558	 0.000000	 0.000000	 0.000000	 0.000000	 0.000000	 0.000000	-0.932594	-15.547030	 9.147756	-44.397460	 15.718940	-4.324520	-22.674200	 45.241440	-70.571140	-17.904200	-4.137156	 56.835460	 0.000000	 0.000000	 0.000000	 0.000000	 0.000000	 0.000000	 0.000000	 0.000000	 0.000000	 0.000000	 0.000000	 0.000000	 0.000000	 0.000000	 0.000000	 0.000000	 0.000000	 0.000000	 0.000000	 0.000000	 0.000000	 0.000000	 0.000000	 0.000000	 0.000000	 0.000000	 0.000000	 0.000000	 0.000000	 0.000000	 0.000000	 0.000000	 0.000000	 0.000000	 0.000000	 0.000000	 0.000000	 0.000000	 0.000000	 0.000000	 0.000000	 0.000000	 0.000000	 0.000000	 0.000000	-23.226190	-14.490580	-14.713390	 54.938440	 18.202330	 12.038280	 20.931860	 44.312880	 46.306510	-4.729032	 1.254210	 22.141730	 0.000000	 0.000000	 0.000000	 0.000000	 0.000000	 0.000000	 0.000000	 0.000000	 0.000000	 0.000000	 0.000000	 0.000000	 0.000000	 0.000000	 0.000000	 0.000000	 0.000000	 0.000000	 0.000000	 0.000000	 0.000000	 0.000000	 0.000000	 0.000000	 0.000000	 0.000000	 0.000000	 0.000000	 0.000000	 0.000000	 0.000000	 0.000000	 0.000000	 0.000000	 0.000000	 0.000000	 0.000000	 0.000000	 0.000000	 0.000000	 0.000000	 0.000000	 0.000000	 0.000000	 0.000000	 19.022520	-15.443880	 4.531263	 5.940946	 26.037230	-17.993590	 2.070910	-14.960160	 5.588527	 0.000000	 0.000000	 0.000000	-7.522151	-18.845510	-1.960771	 0.531596	 28.275950	 3.398927	-11.490540	-20.620440	-25.489590	 0.000000	 0.000000	 0.000000
